<?xml version="1.0" standalone="no"?>
<!DOCTYPE svg PUBLIC "-//W3C//DTD SVG 20010904//EN"
 "http://www.w3.org/TR/2001/REC-SVG-20010904/DTD/svg10.dtd">
<svg version="1.0" xmlns="http://www.w3.org/2000/svg"
 width="2000.000000pt" height="2000.000000pt" viewBox="0 0 2000.000000 2000.000000"
 preserveAspectRatio="xMidYMid meet">
<metadata>
Created by potrace 1.16, written by Peter Selinger 2001-2019
</metadata>
<g transform="translate(0.000000,2000.000000) scale(0.100000,-0.100000)"
fill="#000000" stroke="none">
<path d="M12430 18074 c-297 -41 -599 -139 -859 -281 -195 -106 -439 -291
-591 -447 l-54 -56 -4062 0 -4063 0 -20 -26 -21 -27 0 -4149 0 -4150 -48 -57
c-284 -332 -457 -740 -502 -1180 -55 -546 111 -1153 480 -1756 l70 -114 0
-1364 0 -1364 21 -27 20 -26 1728 0 1727 0 128 -55 c534 -230 1063 -374 1561
-425 142 -15 500 -14 641 0 442 47 871 208 1183 446 l44 34 374 0 375 0 -109
78 c-59 43 -163 122 -231 177 -68 55 -140 110 -159 122 l-36 21 -105 -109
c-333 -348 -741 -548 -1277 -625 -169 -25 -576 -25 -770 0 -874 111 -1790 487
-2808 1153 -401 262 -759 530 -1097 822 -184 159 -563 537 -706 705 -136 160
-338 426 -359 475 -19 44 -18 41 -80 124 -113 151 -282 502 -365 756 -151 465
-161 944 -29 1357 92 288 244 543 459 767 624 654 1595 815 2794 466 78 -23
147 -45 154 -49 9 -4 -31 -36 -115 -92 -442 -293 -939 -555 -1390 -734 -142
-57 -194 -91 -227 -147 -62 -107 -53 -241 35 -501 82 -244 178 -440 320 -657
146 -222 279 -381 533 -634 256 -256 494 -460 901 -772 236 -181 620 -406
1060 -623 535 -262 911 -391 1335 -457 140 -21 533 -24 680 -5 84 11 200 37
200 45 0 10 -34 103 -40 110 -4 5 -31 1 -60 -7 -83 -25 -306 -39 -495 -32
-638 23 -1247 249 -2255 839 -326 190 -843 608 -1226 991 -425 424 -621 704
-788 1123 -78 194 -108 316 -104 416 3 77 4 79 44 116 27 26 73 51 145 79 549
211 1211 585 1799 1016 1276 934 2552 2364 3528 3956 83 135 157 253 164 263
12 17 19 10 84 -80 201 -275 444 -522 720 -729 327 -246 775 -453 1199 -555
77 -18 141 -34 143 -35 1 -1 -59 -84 -135 -185 -817 -1091 -1571 -2462 -2028
-3688 -82 -222 -227 -659 -223 -672 2 -5 30 35 63 89 33 53 79 124 104 156 25
32 52 73 61 91 9 17 32 51 52 76 20 24 90 112 156 194 551 693 1297 1325 2018
1711 l91 48 -148 98 c-264 173 -825 577 -843 606 -5 9 49 112 59 112 2 0 77
-55 167 -123 244 -183 388 -285 655 -463 l242 -162 143 63 c581 256 1129 378
1703 378 528 1 977 -99 1432 -318 492 -237 922 -579 1292 -1025 57 -69 107
-129 112 -134 5 -6 9 1742 9 4102 0 4099 0 4112 -20 4132 -20 20 -33 20 -1196
20 l-1176 0 -93 88 c-398 381 -909 625 -1458 697 -149 19 -491 19 -637 -1z
m677 -144 c263 -38 464 -101 718 -224 832 -404 1345 -1268 1312 -2211 -4 -93
-13 -217 -22 -274 -143 -926 -800 -1660 -1723 -1925 -216 -62 -355 -80 -632
-81 -275 0 -367 11 -598 71 -907 235 -1602 1012 -1749 1954 -25 161 -25 510 0
670 79 506 298 956 643 1319 397 417 920 668 1502 721 137 12 394 3 549 -20z
m-7027 -1154 c845 -130 1535 -641 1906 -1411 61 -126 138 -336 163 -441 l12
-51 151 -18 c290 -33 452 -78 522 -143 35 -33 67 -83 89 -139 31 -80 218
-1029 227 -1153 10 -135 -1 -350 -26 -514 l-17 -116 31 -39 31 -38 -36 -53
-35 -52 -35 33 c-19 19 -111 117 -204 217 -150 162 -250 274 -432 486 -43 50
-66 67 -152 107 -127 59 -244 96 -365 115 -423 63 -869 -92 -1190 -417 -371
-374 -477 -887 -279 -1353 64 -151 98 -195 266 -343 178 -157 392 -357 638
-596 l170 -166 -47 -48 -48 -48 -133 133 -133 133 -90 -15 c-261 -45 -521 -46
-724 -2 -63 14 -223 50 -355 81 -132 31 -304 70 -383 86 -374 78 -436 131
-486 417 -14 79 -33 209 -41 290 -9 81 -19 150 -23 153 -4 4 -41 16 -82 29
-265 78 -580 247 -819 440 -289 232 -513 514 -681 855 -294 595 -336 1270
-119 1915 199 595 648 1113 1223 1411 289 150 563 230 936 273 82 9 470 -3
570 -18z m4221 -1641 c95 -496 339 -962 691 -1317 321 -325 737 -562 1169
-667 237 -57 319 -66 604 -65 258 1 356 11 575 60 l26 6 63 -377 c68 -403 69
-419 21 -442 -38 -18 -307 -60 -469 -74 -174 -14 -538 -6 -696 16 -409 57
-745 162 -1109 348 -486 248 -927 660 -1239 1156 -234 373 -445 928 -451 1185
-1 67 0 70 29 87 32 19 716 179 749 176 16 -2 22 -17 37 -92z"/>
<path d="M5540 16663 c-565 -44 -1091 -286 -1495 -688 -378 -376 -611 -848
-680 -1378 -29 -226 -16 -567 29 -788 170 -815 762 -1487 1555 -1763 l101 -35
0 128 c0 423 79 848 227 1211 167 414 423 760 735 993 506 377 1104 557 1811
545 154 -2 197 0 197 10 0 23 -79 249 -120 343 -235 535 -683 990 -1203 1220
-359 160 -773 232 -1157 202z m135 -194 c90 -25 146 -99 125 -164 -15 -46 -76
-98 -146 -125 -84 -31 -201 -25 -267 14 -102 59 -104 173 -4 235 72 44 208 63
292 40z m-594 -224 c39 -21 62 -69 56 -115 -12 -95 -80 -173 -205 -238 -138
-72 -248 -165 -369 -313 -100 -121 -199 -181 -302 -182 -99 -1 -153 46 -153
133 0 69 40 140 152 271 180 209 343 332 563 421 120 48 195 55 258 23z"/>
<path d="M7495 14749 c-765 -65 -1408 -388 -1791 -901 -276 -370 -436 -787
-500 -1308 -34 -271 -19 -761 31 -1057 31 -180 54 -227 128 -265 57 -28 50
-27 512 -133 226 -52 439 -101 475 -109 124 -29 298 -39 463 -26 84 6 167 14
186 18 l34 7 -104 99 c-57 55 -176 162 -264 240 -88 78 -176 158 -195 178 -78
81 -176 289 -225 479 -36 139 -45 356 -21 504 84 512 484 964 1015 1149 223
78 466 103 681 72 187 -28 446 -121 528 -191 19 -16 99 -103 179 -194 229
-261 357 -399 365 -392 13 13 28 217 28 384 l0 173 -95 474 c-53 261 -103 502
-111 535 -34 132 -75 161 -279 198 -389 71 -724 93 -1040 66z"/>
<path d="M13775 10364 c-340 -36 -711 -128 -1045 -259 -205 -80 -322 -134
-351 -161 -14 -13 -35 -24 -47 -24 -63 0 -491 -251 -781 -458 -530 -378 -1103
-929 -1432 -1377 -32 -44 -77 -103 -99 -132 -139 -179 -367 -557 -467 -773
-235 -508 -346 -935 -369 -1425 -11 -243 25 -578 82 -765 14 -47 39 -130 56
-185 45 -149 63 -196 144 -362 251 -514 730 -1013 1327 -1385 265 -164 408
-236 545 -274 666 -182 1449 -173 2184 26 715 194 1366 540 1958 1040 158 134
477 445 628 613 681 757 1062 1591 1168 2559 24 212 23 628 0 838 -40 356
-141 776 -206 859 -15 20 -65 88 -111 151 -258 354 -578 676 -902 908 -471
337 -1017 538 -1607 592 -157 14 -517 11 -675 -6z m-856 -469 c32 -16 41 -33
41 -79 0 -82 -111 -154 -221 -144 -66 7 -89 29 -89 85 0 53 18 92 60 127 28
23 40 26 106 26 46 0 86 -6 103 -15z m-454 -275 c29 -27 31 -58 9 -106 -18
-38 -51 -60 -139 -95 -33 -12 -89 -42 -125 -65 -36 -23 -83 -51 -106 -62 -145
-73 -447 -304 -578 -441 -32 -34 -90 -89 -128 -123 -38 -34 -112 -115 -166
-180 -53 -65 -106 -121 -117 -124 -61 -15 -119 51 -112 127 3 39 15 62 74 140
39 52 101 123 139 159 38 36 93 90 124 122 75 76 255 235 316 278 162 114 280
192 340 226 38 20 96 56 128 77 131 88 286 118 341 67z m2205 -661 c52 -6 105
-17 118 -25 29 -19 29 -67 1 -95 -18 -18 -29 -21 -73 -15 -256 31 -566 27
-808 -9 -702 -106 -1366 -459 -1961 -1044 -613 -601 -1008 -1317 -1113 -2016
-23 -152 -24 -477 -1 -605 16 -94 10 -121 -29 -139 -35 -16 -70 1 -82 41 -32
100 -47 344 -33 523 43 541 224 1044 559 1555 438 669 1104 1255 1769 1555
346 156 745 257 1119 285 135 10 392 4 534 -11z m1209 -1396 c38 -32 55 -149
55 -398 1 -252 -12 -358 -74 -600 -178 -698 -682 -1415 -1338 -1903 -443 -329
-930 -526 -1452 -586 -233 -27 -632 -16 -687 20 -30 19 -30 67 -2 95 19 19 27
20 112 12 51 -4 196 -8 322 -7 259 1 385 17 623 79 1035 272 2006 1249 2298
2313 71 261 93 571 58 813 -18 122 -15 151 18 167 32 15 43 14 67 -5z"/>
<path d="M16928 5411 c-210 -408 -473 -771 -834 -1155 -465 -496 -954 -876
-1479 -1153 l-100 -53 1228 0 c1214 0 1227 0 1247 20 20 20 20 33 20 1255 0
679 -1 1235 -2 1235 -2 0 -37 -67 -80 -149z"/>
</g>
</svg>
